<svg xmlns="http://www.w3.org/2000/svg" xmlns:xlink="http://www.w3.org/1999/xlink" width="500" zoomAndPan="magnify" viewBox="0 0 375 374.999991" height="500" preserveAspectRatio="xMidYMid meet" version="1.0"><defs><g/><clipPath id="48b000569e"><path d="M 29.992188 5.628906 L 344.992188 5.628906 L 344.992188 367.875 L 29.992188 367.875 Z M 29.992188 5.628906 " clip-rule="nonzero"/></clipPath><clipPath id="3e70373986"><path d="M 29.992188 71.753906 C 29.992188 35.421875 100.507812 5.972656 187.496094 5.972656 C 274.484375 5.972656 345.003906 35.421875 345.003906 71.753906 L 345.003906 302.09375 C 345.003906 338.425781 274.484375 367.875 187.496094 367.875 C 100.507812 367.875 29.992188 338.425781 29.992188 302.09375 Z M 29.992188 71.753906 " clip-rule="nonzero"/></clipPath></defs><g clip-path="url(#48b000569e)"><g clip-path="url(#3e70373986)"><path stroke-linecap="butt" transform="matrix(0, -0.75, 0.75, 0, 29.991111, 367.876061)" fill="none" stroke-linejoin="miter" d="M 394.829565 0.00143532 C 443.272277 0.00143532 482.537904 94.022275 482.537904 210.006657 C 482.537904 325.99104 443.272277 420.017088 394.829565 420.017088 L 87.709753 420.017088 C 39.267042 420.017088 0.00141419 325.99104 0.00141419 210.006657 C 0.00141419 94.022275 39.267042 0.00143532 87.709753 0.00143532 Z M 394.829565 0.00143532 " stroke="#000000" stroke-width="6" stroke-opacity="1" stroke-miterlimit="4"/></g></g><g fill="#000000" fill-opacity="1"><g transform="translate(56.735434, 282.599725)"><g><path d="M 137.6875 17.171875 C 90.046875 17.171875 142.953125 -96.96875 65.390625 -95.03125 C 96.96875 -109.4375 124.109375 -142.125 124.109375 -176.203125 C 124.109375 -193.65625 115.53125 -209.71875 87.828125 -209.71875 C 78.6875 -209.71875 42.9375 -206.125 21.890625 -206.125 C 14.953125 -206.125 11.640625 -206.953125 8.03125 -206.953125 C 3.875 -206.953125 2.765625 -205.84375 2.765625 -204.1875 C 2.765625 -198.921875 7.484375 -198.921875 9.421875 -198.921875 C 18.015625 -198.921875 20.21875 -193.375 20.21875 -183.6875 C 20.21875 -124.953125 17.734375 -70.09375 17.734375 -15.234375 C 17.734375 -7.484375 17.734375 -5.8125 11.640625 -5.8125 C 9.96875 -5.8125 7.203125 -5.546875 7.203125 -1.9375 C 7.203125 -0.828125 8.859375 0.28125 10.53125 0.28125 C 16.90625 0.546875 24.9375 0.546875 32.140625 0.546875 L 48.484375 0.546875 C 51.8125 0.546875 53.75 0 53.75 -2.765625 C 53.75 -4.984375 52.359375 -6.375 47.921875 -6.375 C 44.609375 -6.375 43.5 -7.203125 43.5 -13.015625 C 43.5 -19.390625 41.28125 -65.109375 41.28125 -109.984375 C 41.28125 -153.484375 43.21875 -195.875 51.53125 -200.3125 C 52.359375 -200.859375 59.84375 -202.796875 68.703125 -202.796875 C 82.84375 -202.796875 100.015625 -197.8125 100.015625 -174.8125 C 100.015625 -139.078125 79.234375 -103.0625 43.21875 -92.8125 C 42.9375 -92.53125 42.671875 -92.25 42.671875 -91.703125 C 42.671875 -90.59375 43.765625 -89.203125 47.09375 -89.203125 C 50.140625 -89.203125 52.921875 -90.3125 55.6875 -90.3125 C 64.28125 -90.3125 74.25 -86.4375 78.6875 -81.171875 C 96.40625 -60.125 79.796875 22.71875 139.078125 22.71875 C 142.125 22.71875 143.78125 21.890625 143.78125 19.671875 C 143.78125 17.453125 142.125 16.90625 140.46875 16.90625 C 139.359375 16.90625 138.53125 17.171875 137.6875 17.171875 Z M 137.6875 17.171875 "/></g></g></g><g fill="#000000" fill-opacity="1"><g transform="translate(187.494879, 282.599725)"><g><path d="M 137.6875 17.171875 C 90.046875 17.171875 142.953125 -96.96875 65.390625 -95.03125 C 96.96875 -109.4375 124.109375 -142.125 124.109375 -176.203125 C 124.109375 -193.65625 115.53125 -209.71875 87.828125 -209.71875 C 78.6875 -209.71875 42.9375 -206.125 21.890625 -206.125 C 14.953125 -206.125 11.640625 -206.953125 8.03125 -206.953125 C 3.875 -206.953125 2.765625 -205.84375 2.765625 -204.1875 C 2.765625 -198.921875 7.484375 -198.921875 9.421875 -198.921875 C 18.015625 -198.921875 20.21875 -193.375 20.21875 -183.6875 C 20.21875 -124.953125 17.734375 -70.09375 17.734375 -15.234375 C 17.734375 -7.484375 17.734375 -5.8125 11.640625 -5.8125 C 9.96875 -5.8125 7.203125 -5.546875 7.203125 -1.9375 C 7.203125 -0.828125 8.859375 0.28125 10.53125 0.28125 C 16.90625 0.546875 24.9375 0.546875 32.140625 0.546875 L 48.484375 0.546875 C 51.8125 0.546875 53.75 0 53.75 -2.765625 C 53.75 -4.984375 52.359375 -6.375 47.921875 -6.375 C 44.609375 -6.375 43.5 -7.203125 43.5 -13.015625 C 43.5 -19.390625 41.28125 -65.109375 41.28125 -109.984375 C 41.28125 -153.484375 43.21875 -195.875 51.53125 -200.3125 C 52.359375 -200.859375 59.84375 -202.796875 68.703125 -202.796875 C 82.84375 -202.796875 100.015625 -197.8125 100.015625 -174.8125 C 100.015625 -139.078125 79.234375 -103.0625 43.21875 -92.8125 C 42.9375 -92.53125 42.671875 -92.25 42.671875 -91.703125 C 42.671875 -90.59375 43.765625 -89.203125 47.09375 -89.203125 C 50.140625 -89.203125 52.921875 -90.3125 55.6875 -90.3125 C 64.28125 -90.3125 74.25 -86.4375 78.6875 -81.171875 C 96.40625 -60.125 79.796875 22.71875 139.078125 22.71875 C 142.125 22.71875 143.78125 21.890625 143.78125 19.671875 C 143.78125 17.453125 142.125 16.90625 140.46875 16.90625 C 139.359375 16.90625 138.53125 17.171875 137.6875 17.171875 Z M 137.6875 17.171875 "/></g></g></g></svg>